<mxfile host="app.diagrams.net" modified="2023-06-21T03:36:05.525Z" agent="Mozilla/5.0 (Macintosh; Intel Mac OS X 10_15_7) AppleWebKit/537.36 (KHTML, like Gecko) Chrome/113.0.0.0 Safari/537.36" version="21.5.0" etag="FgTwMC-SRc0TUJ5NG09z" type="github">
  <diagram name="Page-1" id="ZNA7MNT2VMVlJT8ZgBFR">
    <mxGraphModel>
      <root>
        <mxCell id="0" />
        <mxCell id="1" parent="0" />
      </root>
    </mxGraphModel>
  </diagram>
</mxfile>
